solid cube
facet normal 0 0 0
    outer loop
        vertex 0.3 0.3 -0.3
        vertex 0.3 -0.3 -0.3
        vertex -0.3 -0.3 -0.3
    endloop
endfacet
facet normal 0 0 0
    outer loop
        vertex -0.3 0.3 -0.3
        vertex 0.3 0.3 -0.3
        vertex -0.3 -0.3 -0.3
    endloop
endfacet
facet normal 0 0 0
    outer loop
        vertex 0.3 0.3 0.3
        vertex 0.3 -0.3 0.3
        vertex 0.3 -0.3 -0.3
    endloop
endfacet
facet normal 0 0 0
    outer loop
        vertex 0.3 0.3 -0.3
        vertex 0.3 0.3 0.3
        vertex 0.3 -0.3 -0.3
    endloop
endfacet
facet normal 0 0 0
    outer loop
        vertex -0.3 0.3 0.3
        vertex -0.3 -0.3 0.3
        vertex 0.3 -0.3 0.3
    endloop
endfacet
facet normal 0 0 0
    outer loop
        vertex 0.3 0.3 0.3
        vertex -0.3 0.3 0.3
        vertex 0.3 -0.3 0.3
    endloop
endfacet
facet normal 0 0 0
    outer loop
        vertex -0.3 0.3 -0.3
        vertex -0.3 -0.3 -0.3
        vertex -0.3 -0.3 0.3
    endloop
endfacet
facet normal 0 0 0
    outer loop
        vertex -0.3 0.3 0.3
        vertex -0.3 0.3 -0.3
        vertex -0.3 -0.3 0.3
    endloop
endfacet
facet normal 0 0 0
    outer loop
        vertex 0.3 0.3 0.3
        vertex 0.3 0.3 -0.3
        vertex -0.3 0.3 -0.3
    endloop
endfacet
facet normal 0 0 0
    outer loop
        vertex -0.3 0.3 0.3
        vertex 0.3 0.3 0.3
        vertex -0.3 0.3 -0.3
    endloop
endfacet
facet normal 0 0 0
    outer loop
        vertex 0.3 -0.3 -0.3
        vertex 0.3 -0.3 0.3
        vertex -0.3 -0.3 0.3
    endloop
endfacet
facet normal 0 0 0
    outer loop
        vertex -0.3 -0.3 -0.3
        vertex 0.3 -0.3 -0.3
        vertex -0.3 -0.3 0.3
    endloop
endfacet
endsolid cube